<?xml version="1.0" encoding="UTF-8" standalone="no" ?>
<!DOCTYPE svg PUBLIC "-//W3C//DTD SVG 1.1//EN" "http://www.w3.org/Graphics/SVG/1.1/DTD/svg11.dtd">
<svg xmlns="http://www.w3.org/2000/svg" xmlns:xlink="http://www.w3.org/1999/xlink" version="1.1" width="1280" height="1024" viewBox="0 0 1280 1024" xml:space="preserve">
<desc>Created with Fabric.js 5.3.0</desc>
<defs>
</defs>
<g transform="matrix(1 0 0 1 640 512)" id="background-logo"  >
<rect style="stroke: none; stroke-width: 0; stroke-dasharray: none; stroke-linecap: butt; stroke-dashoffset: 0; stroke-linejoin: miter; stroke-miterlimit: 4; fill: rgb(255,255,255); fill-opacity: 0; fill-rule: nonzero; opacity: 1;"  paint-order="stroke"  x="-640" y="-512" rx="0" ry="0" width="1280" height="1024" />
</g>
<g transform="matrix(1.9211538461538462 0 0 1.9211538461538462 640 395.6864080388972)" id="logo-logo"  >
<g style=""  paint-order="stroke"   >
		<g transform="matrix(0.917930923744532 0 0 0.9179309237445321 0 0)"  >
<g style=""  paint-order="stroke"   >
		<g transform="matrix(1 0 0 1 0 0)"  >
<linearGradient id="SVGID_176349_174274" gradientUnits="userSpaceOnUse" gradientTransform="matrix(1 0 0 1 -100 -100)"  x1="0" y1="0" x2="0" y2="200">
<stop offset="0%" style="stop-color:rgb(23,234,217);stop-opacity: 1"/>
<stop offset="100%" style="stop-color:rgb(96,120,234);stop-opacity: 1"/>
</linearGradient>
<polygon style="stroke: none; stroke-width: 1; stroke-dasharray: none; stroke-linecap: butt; stroke-dashoffset: 0; stroke-linejoin: miter; stroke-miterlimit: 4; fill: url(#SVGID_176349_174274); fill-rule: nonzero; opacity: 1;"  paint-order="stroke"  points="100,100 0,100 0,95.12 95.12,95.12 95.12,-95.12 -95.12,-95.12 -95.12,0 -100,0 -100,-100 100,-100 100,100 " />
</g>
</g>
</g>
</g>
</g>
<g transform="matrix(1.9211538461538462 0 0 1.9211538461538462 640.8453076923075 667.1128161574082)" id="text-logo"  >
<g style=""  paint-order="stroke"   >
		<g transform="matrix(1 0 0 1 0 0)" id="text-logo-path-0"  >
<path style="stroke: rgb(255,255,255); stroke-width: 0; stroke-dasharray: none; stroke-linecap: butt; stroke-dashoffset: 0; stroke-linejoin: miter; stroke-miterlimit: 4; fill: rgb(49,192,223); fill-rule: nonzero; opacity: 1;"  paint-order="stroke"  transform=" translate(-122.265, 19.25)" d="M 5.5 -38.5 L 5.5 0 L 9.35 0 L 9.35 -29.15 L 21.34 0 L 25.19 0 L 25.19 -38.5 L 21.34 -38.5 L 21.34 -9.35 L 9.35 -38.5 Z M 55.33 -38.5 L 55.33 0 L 71.83 0 L 71.83 -3.3 L 59.18 -3.3 L 59.18 -17.6 L 68.53 -17.6 L 68.53 -20.9 L 59.18 -20.9 L 59.18 -35.2 L 71.28 -35.2 L 71.28 -38.5 Z M 95.92 0 L 99.94 0 L 106.26 -14.96 L 112.58 0 L 116.6 0 L 108.46 -19.25 L 116.6 -38.5 L 112.58 -38.5 L 106.42 -23.93 L 100.27 -38.5 L 96.25 -38.5 L 104.22 -19.64 Z M 154.82 -35.2 L 139.87 -3.3 L 139.87 0 L 158.24 0 L 158.24 -3.3 L 143.72 -3.3 L 158.68 -35.2 L 158.68 -38.5 L 140.85 -38.5 L 140.85 -35.2 Z M 192.66 -38.5 L 183.86 -38.5 L 183.86 -35.2 L 186.34 -35.2 L 186.34 -3.3 L 183.86 -3.3 L 183.86 0 L 192.66 0 L 192.66 -3.3 L 190.19 -3.3 L 190.19 -35.2 L 192.66 -35.2 Z M 220.33 -30.25 L 220.33 -8.25 C 220.33 -0.88 224.51 0.55 229.68 0.55 C 234.9 0.55 239.03 -0.99 239.03 -8.25 L 239.03 -30.25 C 239.03 -37.62 234.9 -39.05 229.68 -39.05 C 224.51 -39.05 220.33 -37.62 220.33 -30.25 Z M 224.18 -9.35 L 224.18 -29.15 C 224.18 -34.16 226.32 -35.2 229.68 -35.2 C 233.03 -35.2 235.18 -34.16 235.18 -29.15 L 235.18 -9.35 C 235.18 -4.34 233.03 -3.3 229.68 -3.3 C 226.32 -3.3 224.18 -4.34 224.18 -9.35 Z" stroke-linecap="round" />
</g>
</g>
</g>
<g transform="matrix(1.9211538461538462 0 0 1.9211538461538462 640.0331399038462 400.3139834271185)" id="tagline-3a78d944-c0db-44d4-8ad5-60158c925687-logo"  >
<g style=""  paint-order="stroke"   >
		<g transform="matrix(1 0 0 1 0 0)" id="tagline-3a78d944-c0db-44d4-8ad5-60158c925687-logo-path-0"  >
<linearGradient id="SVGID_174276" gradientUnits="userSpaceOnUse" gradientTransform="matrix(1 0 0 1 6.899999999999999 -48.3)"  x1="-6.899999999999977" y1="-12.360659999999996" x2="-6.899999999999977" y2="65.63934">
<stop offset="0%" style="stop-color:rgb(23,234,217);stop-opacity: 1"/>
<stop offset="100%" style="stop-color:rgb(96,120,234);stop-opacity: 1"/>
</linearGradient>
<path style="stroke: rgb(255,255,255); stroke-width: 0; stroke-dasharray: none; stroke-linecap: butt; stroke-dashoffset: 0; stroke-linejoin: miter; stroke-miterlimit: 4; fill: url(#SVGID_174276); fill-rule: nonzero; opacity: 1;"  paint-order="stroke"  transform=" translate(-19.25, 24.15)" d="M 6.9 -48.3 L 6.9 0 L 11.73 0 L 11.73 -36.57 L 26.77 0 L 31.6 0 L 31.6 -48.3 L 26.77 -48.3 L 26.77 -11.73 L 11.73 -48.3 Z" stroke-linecap="round" />
</g>
</g>
</g>
<g transform="matrix(1.9211538461538462 0 0 1.9211538461538462 641.5335610576924 764.5357572343313)" id="tagline-ee21041c-fd7a-4646-a088-df0a2334375e-logo"  >
<g style=""  paint-order="stroke"   >
		<g transform="matrix(1 0 0 1 -5.684342e-14 0)" id="tagline-ee21041c-fd7a-4646-a088-df0a2334375e-logo-path-0"  >
<path style="stroke: none; stroke-width: 0; stroke-dasharray: none; stroke-linecap: butt; stroke-dashoffset: 0; stroke-linejoin: miter; stroke-miterlimit: 4; fill: rgb(63,171,226); fill-rule: nonzero; opacity: 1;"  paint-order="stroke"  transform=" translate(-202.63, 10.850000000000001)" d="M 3.1 -21.7 L 3.1 0 L 5.27 0 L 5.27 -16.43 L 12.03 0 L 14.2 0 L 14.2 -21.7 L 12.03 -21.7 L 12.03 -5.27 L 5.27 -21.7 Z M 26.63 -21.7 L 26.63 0 L 35.93 0 L 35.93 -1.86 L 28.8 -1.86 L 28.8 -9.92 L 34.07 -9.92 L 34.07 -11.78 L 28.8 -11.78 L 28.8 -19.84 L 35.62 -19.84 L 35.62 -21.7 Z M 44.95 0 L 47.21 0 L 50.78 -8.43 L 54.34 0 L 56.61 0 L 52.02 -10.85 L 56.61 -21.7 L 54.34 -21.7 L 50.87 -13.48 L 47.4 -21.7 L 45.14 -21.7 L 49.63 -11.07 Z M 75.24 -21.7 L 65.01 -21.7 L 65.01 -19.84 L 69.04 -19.84 L 69.04 0 L 71.21 0 L 71.21 -19.84 L 75.24 -19.84 Z M 94.33 -11.78 L 85.34 -11.78 L 85.34 -9.92 L 94.33 -9.92 Z M 116.68 -10.85 L 111.1 -10.85 L 111.1 -8.99 L 114.51 -8.99 L 114.51 -5.27 C 114.51 -2.45 113.3 -1.86 111.41 -1.86 C 109.52 -1.86 108.31 -2.45 108.31 -5.27 L 108.31 -16.43 C 108.31 -19.25 109.52 -19.84 111.41 -19.84 C 113.3 -19.84 114.51 -19.25 114.51 -16.43 L 114.51 -13.33 L 116.68 -13.33 L 116.68 -17.05 C 116.68 -21.2 114.36 -22.01 111.41 -22.01 C 108.5 -22.01 106.14 -21.2 106.14 -17.05 L 106.14 -4.65 C 106.14 -0.5 108.5 0.31 111.41 0.31 C 112.37 0.31 113.89 -0.09 114.73 -1.8 L 115.44 0 L 116.68 0 Z M 128.65 -21.7 L 128.65 0 L 137.95 0 L 137.95 -1.86 L 130.82 -1.86 L 130.82 -9.92 L 136.09 -9.92 L 136.09 -11.78 L 130.82 -11.78 L 130.82 -19.84 L 137.64 -19.84 L 137.64 -21.7 Z M 148.83 -21.7 L 148.83 0 L 151 0 L 151 -16.43 L 157.76 0 L 159.93 0 L 159.93 -21.7 L 157.76 -21.7 L 157.76 -5.27 L 151 -21.7 Z M 198.37 -21.7 L 195.27 -21.7 L 191.58 -8.43 L 187.89 -21.7 L 184.79 -21.7 L 184.79 0 L 186.96 0 L 186.96 -17.24 L 190.46 -4.65 L 192.7 -4.65 L 196.2 -17.24 L 196.2 0 L 198.37 0 Z M 208.94 0 L 211.11 0 L 212.35 -5.89 L 217.9 -5.89 L 219.14 0 L 221.31 0 L 216.75 -21.7 L 213.5 -21.7 Z M 212.75 -7.75 L 215.14 -19.13 L 217.53 -7.75 Z M 231.88 0 L 234.05 0 L 234.05 -8.06 L 236.22 -8.06 L 240.09 0 L 242.42 0 L 238.45 -8.31 C 240.28 -8.77 241.49 -10.04 241.49 -13.02 L 241.49 -16.74 C 241.49 -20.89 239.16 -21.7 236.22 -21.7 L 231.88 -21.7 Z M 234.05 -9.92 L 234.05 -19.84 L 236.22 -19.84 C 238.11 -19.84 239.32 -19.25 239.32 -16.43 L 239.32 -13.33 C 239.32 -10.51 238.11 -9.92 236.22 -9.92 Z M 253.02 -21.7 L 253.02 0 L 255.19 0 L 255.19 -9.18 L 255.84 -10.2 L 261.08 0 L 263.41 0 L 257.11 -12.24 L 262.97 -21.7 L 260.65 -21.7 L 255.19 -12.93 L 255.19 -21.7 Z M 273.36 -21.7 L 273.36 0 L 282.66 0 L 282.66 -1.86 L 275.53 -1.86 L 275.53 -9.92 L 280.8 -9.92 L 280.8 -11.78 L 275.53 -11.78 L 275.53 -19.84 L 282.35 -19.84 L 282.35 -21.7 Z M 301.6 -21.7 L 291.37 -21.7 L 291.37 -19.84 L 295.4 -19.84 L 295.4 0 L 297.57 0 L 297.57 -19.84 L 301.6 -19.84 Z M 311.55 0 L 313.72 0 L 313.72 -7.75 L 315.89 -7.75 C 318.83 -7.75 321.16 -8.62 321.16 -12.71 L 321.16 -16.74 C 321.16 -20.89 318.83 -21.7 315.89 -21.7 L 311.55 -21.7 Z M 313.72 -9.61 L 313.72 -19.84 L 315.89 -19.84 C 317.78 -19.84 318.99 -19.25 318.99 -16.43 L 318.99 -13.02 C 318.99 -10.2 317.78 -9.61 315.89 -9.61 Z M 332.35 -21.7 L 332.35 0 L 340.1 0 L 340.1 -1.86 L 334.52 -1.86 L 334.52 -21.7 Z M 348.19 0 L 350.36 0 L 351.6 -5.89 L 357.15 -5.89 L 358.39 0 L 360.56 0 L 356 -21.7 L 352.75 -21.7 Z M 352 -7.75 L 354.39 -19.13 L 356.78 -7.75 Z M 379.04 -16.43 L 379.04 -13.33 L 381.21 -13.33 L 381.21 -17.05 C 381.21 -21.2 378.88 -22.01 375.94 -22.01 C 373.02 -22.01 370.67 -21.2 370.67 -17.05 L 370.67 -4.65 C 370.67 -0.5 373.02 0.31 375.94 0.31 C 378.88 0.31 381.21 -0.56 381.21 -4.65 L 381.21 -5.95 L 379.04 -5.95 L 379.04 -5.27 C 379.04 -2.45 377.83 -1.86 375.94 -1.86 C 374.05 -1.86 372.84 -2.45 372.84 -5.27 L 372.84 -16.43 C 372.84 -19.25 374.05 -19.84 375.94 -19.84 C 377.83 -19.84 379.04 -19.25 379.04 -16.43 Z M 392.86 -21.7 L 392.86 0 L 402.16 0 L 402.16 -1.86 L 395.03 -1.86 L 395.03 -9.92 L 400.3 -9.92 L 400.3 -11.78 L 395.03 -11.78 L 395.03 -19.84 L 401.85 -19.84 L 401.85 -21.7 Z" stroke-linecap="round" />
</g>
</g>
</g>
<g transform="matrix(0.25532756953480157 0 0 0.25532756953480157 405.9554326923077 593.4600754109812)" id="shape-f725f5ec-09c2-4144-929a-335c86b16f15"  >
<g style=""  paint-order="stroke"   >
		<g transform="matrix(1 0 0 1 -1.421085e-14 0)" id="Path-1"  >
<path style="stroke: none; stroke-width: 1; stroke-dasharray: none; stroke-linecap: butt; stroke-dashoffset: 0; stroke-linejoin: miter; stroke-miterlimit: 4; fill: rgb(44,179,211); fill-rule: nonzero; opacity: 1;"  paint-order="stroke"  transform=" translate(-93.64499944034489, -124.98333024747255)" d="M 183.11 128.27 C 181.88000000000002 127.32000000000001 180.61 126.52000000000001 179.26000000000002 125.78000000000002 C 179.03000000000003 122.49000000000001 178.62000000000003 119.09000000000002 176.52 116.27000000000001 C 171.8 110.37 162.06 109.84 156.26000000000002 114.19000000000001 C 153.20000000000002 116.34000000000002 150.79000000000002 119.09000000000002 148.61 121.99000000000001 C 146.76000000000002 112.65 146.49 102.96000000000001 148.15 93.62 C 149.24 88.12 149.63 82.25 149 76.69 C 147.91 65.7 145.35 54.769999999999996 148.84 44.04 C 154.45000000000002 28.38 163.86 14.259999999999998 174.03 1.2100000000000009 C 174.03 1.2100000000000009 175 -0.00999999999999912 175 -0.00999999999999912 C 171.27 0.5400000000000009 167.58 1.310000000000001 163.96 2.320000000000001 C 154.9 5.020000000000001 144.64000000000001 8.650000000000002 139.96 17.55 C 130.10000000000002 20.1 122.55000000000001 28.240000000000002 119.62 37.84 C 117.2 38.77 115.13000000000001 40.02 113.2 41.61000000000001 C 109.42 44.660000000000004 106.85000000000001 49.00000000000001 105.61 53.68000000000001 C 105.52 54.39000000000001 105.07 56.00000000000001 105.01 56.690000000000005 C 104.95 57.34 104.81 59.050000000000004 104.75 59.730000000000004 C 104.72 60.790000000000006 104.77 61.84 104.81 62.900000000000006 C 97.69 67.36 94.01 75.78 95 84.05 C 95.12 85.05 95.31 86.03999999999999 95.48 87.03 C 89.95 92.06 87.60000000000001 99.57 89.48 106.49000000000001 C 86.19 103.58000000000001 82.92 100.64000000000001 79.36 98.05000000000001 C 72.88 93.08000000000001 65.68 89.01000000000002 58.84 84.65 C 51.95 80.31 46.470000000000006 74.59 41.61 68.06 C 31.69 55.2 22.4 41.73 14.81 27.35 C 11.16 20.18 7.52 12.74 6.1 4.8 L 5.66 2.23 C 3.27 9.29 1.4400000000000004 16.53 0.5 23.93 C -0.19999999999999996 30.41 -0.6000000000000001 37.230000000000004 2.37 43.33 C 0.8400000000000001 49.44 0.43000000000000016 55.69 1.4100000000000001 61.91 C 2.37 68.09 5.11 74.09 9.56 78.57 C 9.19 86 10.64 93.7 15.29 99.67 C 16.7 101.48 18.439999999999998 103.03 20.349999999999998 104.3 C 19.439999999999998 115.28 26.08 125.86 36.099999999999994 130.22 C 36.169999999999995 132.8 36.559999999999995 135.25 37.23 137.69 C 39.23 145.94 45.959999999999994 152.82 54.379999999999995 154.36 C 60.49999999999999 167.94000000000003 73.71 179.84 89.32 177.12 C 85.74 181.56 82.89999999999999 186.59 78.53999999999999 190.39000000000001 C 64.24 203.63000000000002 46.85999999999999 213.37 28.959999999999994 221.02 C 19.939999999999994 224.60000000000002 10.259999999999994 227.5 0.8499999999999943 229.73000000000002 L 0.06999999999999429 229.93 C 1.3199999999999943 234.23000000000002 5.519999999999994 236.73000000000002 9.569999999999995 237.81 C 12.949999999999996 238.79 16.649999999999995 238.86 20.169999999999995 238.69 C 21.699999999999996 242.54 25.559999999999995 245 29.479999999999997 245.73 C 33.199999999999996 246.56 37.169999999999995 246.17 40.91 245.51999999999998 C 46.72 251.39999999999998 56.169999999999995 250.77999999999997 63.209999999999994 247.57999999999998 C 63.209999999999994 247.57999999999998 64.83 246.79999999999998 65.61999999999999 246.41 C 74.28999999999999 249.95 83.89999999999999 245.57999999999998 88.50999999999999 237.74 C 92.74999999999999 231.20000000000002 96.85 224.57000000000002 100.49 217.68 C 103.67999999999999 216.73000000000002 106.86 215.73000000000002 110.02 214.71 C 123.02 210.75 135.46 204.43 145.85 195.58 C 153.66 188.96 160.94 181.41000000000003 165.79 172.28 C 167.79 168.52 169.41 164.01 169.16 159.59 C 168.94 153.87 169.75 148.08 171.68 142.68 C 172.83 139.86 174 136.43 176.43 134.53 C 179.67000000000002 133.21 183.78 133.5 187.29000000000002 133.61 C 186.48 131.44 184.94 129.64 183.11 128.27 z M 97.51 87.79 C 97.38000000000001 86.49000000000001 97.16000000000001 85.18 97.07000000000001 83.88000000000001 C 96.50000000000001 75.76 100.26 68.14000000000001 107.66000000000001 64.54 C 107.69000000000001 63.00000000000001 107.63000000000001 61.410000000000004 107.68 59.88000000000001 C 107.74000000000001 59.28000000000001 107.89 57.72000000000001 107.95 57.14000000000001 C 108.07000000000001 56.57000000000001 108.39 55.06000000000001 108.52 54.470000000000006 C 108.88 53.36000000000001 109.25 52.14000000000001 109.78 51.09 C 111.92 46.260000000000005 116.38 42.230000000000004 121.31 40.52 L 122.09 40.25 C 122.09 40.25 122.38000000000001 39.44 122.38000000000001 39.44 C 124.26 32.599999999999994 128.46 26.33 134.66 22.709999999999997 C 136.9 21.349999999999998 139.37 20.339999999999996 141.81 19.799999999999997 C 142.9 16.819999999999997 145 14.299999999999997 147.59 12.219999999999997 C 154.66 6.779999999999997 163.44 3.7599999999999962 172.11 1.7999999999999972 C 164.18 12.609999999999998 156.85000000000002 23.909999999999997 150.54000000000002 35.73 C 149.37000000000003 37.97 147.92000000000002 41.089999999999996 147.04000000000002 43.44 C 141.65000000000003 56.97 147.00000000000003 71.31 146.86 85.12 C 146.85000000000002 87.55000000000001 146.3 90.82000000000001 145.99 93.28 C 144.66 103.1 145.34 113.2 148.10000000000002 122.7 C 146.44000000000003 124.95 144.89000000000001 127.27000000000001 143.27 129.47 C 142.47 130.43 141.64000000000001 131.38 140.79000000000002 132.3 C 125.62000000000002 128.76000000000002 110.80000000000003 122.77000000000001 98.18000000000002 113.63000000000001 C 95.47000000000003 111.68 92.94000000000003 109.52000000000001 90.43000000000002 107.31 C 88.35 100.13 91.64 92.19 97.51 87.79 z M 173.83 135.35 C 168.62 143.18 166.92000000000002 152.73 166.41000000000003 161.94 C 165.13000000000002 168.10999999999999 161.13000000000002 173.67 157.12000000000003 178.51999999999998 C 144.33000000000004 193.55999999999997 127.23000000000003 204.33999999999997 108.69000000000003 210.98999999999998 C 96.24000000000002 215.73999999999998 83.73000000000002 220.38 70.86000000000003 223.96999999999997 C 70.86000000000003 223.96999999999997 70.93000000000002 224.39999999999998 70.93000000000002 224.39999999999998 C 80.71000000000002 223.07999999999998 90.30000000000003 220.7 99.76000000000002 217.89999999999998 C 97.94000000000003 220.67 96.10000000000002 223.42999999999998 94.20000000000002 226.14999999999998 C 90.50000000000001 231.20999999999998 87.30000000000001 236.80999999999997 82.71000000000002 241.10999999999999 C 78.07000000000002 245.26999999999998 70.99000000000002 245.98 65.56000000000003 243.17 C 65.56000000000003 243.17 64.87000000000003 243.48999999999998 64.87000000000003 243.48999999999998 C 58.13000000000003 247.01999999999998 48.48000000000003 249.1 42.62000000000003 242.99999999999997 L 42 242.28 C 42 242.28 41.12 242.45 41.12 242.45 C 34.44 244.04999999999998 24.009999999999998 244.33999999999997 21.909999999999997 236.10999999999999 C 15.299999999999997 236.67999999999998 6.179999999999996 237.13 2.169999999999998 230.89999999999998 C 20.729999999999997 225.32999999999998 39.31 219.2 56.379999999999995 209.84999999999997 C 66.05 204.35999999999996 75.28999999999999 197.64999999999998 82.67999999999999 189.20999999999998 C 85.22 186.45 86.92999999999999 183.08999999999997 88.96 179.98 C 91.66999999999999 175.95999999999998 94.86 172.20999999999998 98.39999999999999 168.82 L 98.21 168.59 C 96.22999999999999 170.08 94.39 171.74 92.63999999999999 173.49 C 91.57 174.5 90.59999999999998 175.59 89.67999999999999 176.72 C 78.44999999999999 178.3 67.77 171.91 61.55999999999999 162.8 C 59.26999999999999 159.60000000000002 57.329999999999984 156.10000000000002 55.93999999999999 152.5 C 44.18999999999999 150.57 38.33999999999999 139.53 38.959999999999994 128.39 C 28.89999999999999 124.40999999999998 22.199999999999992 114.66999999999999 23.46999999999999 103.76999999999998 L 23.589999999999993 102.73999999999998 L 22.73999999999999 102.21999999999998 C 14.459999999999992 97.22999999999999 11.819999999999991 86.51999999999998 12.549999999999992 77.41999999999999 C 7.9399999999999915 73.28999999999999 5.089999999999992 67.54999999999998 4.079999999999991 61.44999999999999 C 3.049999999999991 55.39999999999999 3.379999999999991 48.93999999999999 4.879999999999991 43.00999999999999 C 3.219999999999991 40.28999999999999 2.539999999999991 37.02999999999999 2.229999999999991 33.709999999999994 C 1.58 24.89 3.17 15.94 5.46 7.39 C 9.620000000000001 22.39 18.35 35.73 26.39 48.910000000000004 C 33.120000000000005 59.2 39.56 69.67 47.84 78.86 C 56.49 87.71 68.24000000000001 92.7 77.89 100.05 C 82.71000000000001 103.47 87.01 107.53 91.57 111.28999999999999 C 91.63999999999999 111.39999999999999 91.69 111.50999999999999 91.75999999999999 111.61999999999999 C 91.75999999999999 111.61999999999999 91.82 111.58999999999999 91.88 111.55 C 93.50999999999999 112.89 95.17999999999999 114.19 96.92 115.39999999999999 C 110.01 124.30999999999999 125.04 129.95 140.47 132.64 C 134.87 138.64999999999998 128.28 143.89 122.08 149.29999999999998 L 122.33 149.66 C 127.92999999999999 146.24 133.34 142.53 138.5 138.41 C 143.75 134.57 148 128.91 151.89 123.83 C 155.82 118.96 160.73 114.53999999999999 166.39999999999998 115.21 C 173.76999999999998 115.67999999999999 176.14999999999998 119.63999999999999 176.92 126.61999999999999 C 176.92 126.61999999999999 177.03 127.35999999999999 177.03 127.35999999999999 C 179.61 128.44 182.64000000000001 129.85 184.49 132.04 C 180.68 132.15 176.01 131.97 173.83 135.35 z" stroke-linecap="round" />
</g>
</g>
</g>
</svg>